<svg width="24" height="24" viewBox="0 0 24 24" fill="none" xmlns="http://www.w3.org/2000/svg">
<path opacity="0.4" d="M18 7.5V7V6.8C18 5.11984 18 4.27976 17.673 3.63803C17.3854 3.07354 16.9265 2.6146 16.362 2.32698C15.7202 2 14.8802 2 13.2 2H6.8C5.11984 2 4.27976 2 3.63803 2.32698C3.07354 2.6146 2.6146 3.07354 2.32698 3.63803C2 4.27976 2 5.11984 2 6.8V13.7857C2 13.9681 2 14.0593 2.00469 14.1185C2.0939 15.2443 3.34822 15.8715 4.30239 15.2673C4.35253 15.2356 4.42549 15.1809 4.57143 15.0714V15.0714C4.66556 15.0008 4.71263 14.9655 4.75938 14.9321C5.5757 14.3487 6.54866 14.0244 7.55177 14.0013C7.60921 14 7.66804 14 7.78571 14H9" stroke="white" stroke-width="1.5" stroke-linecap="round" stroke-linejoin="round"/>
<path d="M9 13.2C9 12.0799 9 11.5198 9.21799 11.092C9.40973 10.7157 9.71569 10.4097 10.092 10.218C10.5198 10 11.0799 10 12.2 10H18.8C19.9201 10 20.4802 10 20.908 10.218C21.2843 10.4097 21.5903 10.7157 21.782 11.092C22 11.5198 22 12.0799 22 13.2V20.3636C22 21.357 20.8103 21.8669 20.0909 21.1818V21.1818C19.3906 20.5149 18.4606 20.1429 17.4935 20.1429H12.2C11.0799 20.1429 10.5198 20.1429 10.092 19.9249C9.71569 19.7331 9.40973 19.4272 9.21799 19.0508C9 18.623 9 18.063 9 16.9429V13.2Z" stroke="white" stroke-width="1.5" stroke-linecap="round" stroke-linejoin="round"/>
</svg>
